<svg xmlns="http://www.w3.org/2000/svg" xmlns:xlink="http://www.w3.org/1999/xlink" viewBox="0 0 26.723 6.879" height="26" width="101"><g fill="#fff" fill-rule="evenodd"><path d="M4.6 0c1.673 0 3.03 1.36 3.03 3.036S6.265 6.072 4.6 6.072s-3.03-1.36-3.03-3.036S2.918 0 4.6 0zm0 1.008L4.68 1a.97.97 0 0 0 .894 1.34.96.96 0 0 0 .752-.36 2.02 2.02 0 0 1 .29 1.046c0 1.12-.906 2.028-2.024 2.028s-2.024-.908-2.024-2.028S3.474.998 4.592.998zm-.714.82c.205 0 .372.167.372.373s-.167.373-.372.373-.372-.167-.372-.373.167-.373.372-.373zm8.078.727l-.844.452a1.38 1.38 0 0 0-.437-.336 1.32 1.32 0 0 0-.523-.094c-.368 0-.672.1-.9.328s-.37.5-.388.843c-.02.333.076.605.282.816s.488.316.844.316c.44 0 .8-.15 1.053-.452l.745.533c-.452.548-1.06.822-1.827.822-.7 0-1.22-.205-1.587-.613s-.537-.886-.506-1.434a2.11 2.11 0 0 1 .343-1.049c.2-.32.487-.57.838-.754a2.45 2.45 0 0 1 1.157-.274 2.23 2.23 0 0 1 1.037.233 1.84 1.84 0 0 1 .724.663zM16.63.238h.982L17.3 5.686h-.982zm8.266 3.482c.054.054.1.108.14.158a1.07 1.07 0 0 1 .229.684 1.09 1.09 0 0 1-.415.87c-.275.23-.87.35-1.334.35-.617 0-1.332-.223-1.7-.67l.655-.66a1.49 1.49 0 0 0 .44.327c.17.083.538.125.668.125.14 0 .475-.03.56-.094s.13-.134.13-.216c0-.152-.355-.348-.685-.443l-.58-.167c-.22-.063-.4-.153-.546-.262z"/><use xlink:href="#B"/><path d="M22.1 2.88c0-.958.956-1.22 1.748-1.22.617 0 1.332.223 1.7.67l-.655.66c-.3-.324-.67-.452-1.108-.452-.93 0-.907.493-.004.753.71.204 1.493.344 1.493 1.27 0 .958-.956 1.22-1.748 1.22-.617 0-1.332-.223-1.7-.67l.655-.66c.3.324.67.452 1.108.452.94 0 .89-.498.004-.753-.726-.21-1.493-.35-1.493-1.27z"/><use xlink:href="#B" x="-5.66"/><use xlink:href="#C"/><use xlink:href="#C" x="6.579" y="3.408"/><path d="M26.29 1.12c.115 0 .226.046.307.128s.127.192.127.308c0 .24-.195.435-.434.435s-.434-.195-.434-.435.195-.435.434-.435z"/></g><defs ><path id="B" d="M17.963 1.756h.977l-.105 1.9c-.044.798-.016 1.22.87 1.22s.96-.395 1.003-1.187l.107-1.922h.962l-.093 1.663c-.083 1.493-.39 2.364-2.042 2.364-1.684 0-1.852-.912-1.77-2.392z"/><path id="C" d="M.435 2.6c.24 0 .434.195.434.435 0 .176-.106.335-.268.402s-.35.03-.474-.094-.16-.312-.094-.474.226-.27.4-.27z"/></defs></svg>